<?xml version="1.0" encoding="utf-8"?>
<!-- Generator: Adobe Illustrator 19.0.1, SVG Export Plug-In . SVG Version: 6.00 Build 0)  -->
<svg version="1.1" id="Layer_1" xmlns="http://www.w3.org/2000/svg" xmlns:xlink="http://www.w3.org/1999/xlink" x="0px" y="0px"
	 viewBox="0 0 609 489" enable-background="new 0 0 609 489" xml:space="preserve">
<rect fill="#0A7BF5" width="609" height="489"/>
<g>
	<path fill="#FFFFFF" d="M252.2,212.8c0,9.5,8.2,12.8,17.6,15.6c12.5,3.7,27,7.5,27,25.6c0,15.7-13.7,23.6-28.8,23.6
		c-9.1,0-15.3-3.6-19.9-3.6c-3.1,0-5.3,1.6-7.6,3.6l-1.7-25.4h0.2c6.9,14.2,17.8,23.1,28.9,23.1c9.5,0,16.3-5.3,16.3-14.7
		c0-11-10.8-13.7-21.8-17.1c-11.3-3.5-22.9-8-22.8-23.5c0-14,11.5-22.9,27.1-22.9c8.6,0,14.5,3.4,18.6,3.4c3.1,0,4.9-1.9,6.6-3.4
		l0.5,22.6h-0.2c-6.2-11.6-13.7-20.3-25.4-20.3C258.8,199.3,252.2,204,252.2,212.8"/>
	<path fill="#FFFFFF" d="M367.7,198c3.1,0,5.5-0.2,7-0.9l3.8,25.1h-0.2c-8.6-14.2-12.9-21.3-25.1-21.3h-6.5l0,62.2
		c0,7.4,1.5,10.2,6.6,13.1v0.2h-30v-0.2c5.2-2.9,6.5-5.7,6.5-13.1V201h-6.5c-12.2,0-16.4,7-25,21.3H298l3.8-25.1
		c1.5,0.7,3.8,0.9,6.8,0.9H367.7z"/>
	<path fill="#FFFFFF" d="M386,276.5l-18.8,0v-0.2c4.3-2.5,7.3-6.9,10.6-14l29.8-65.3h0.4l31.7,67c3.4,7,5,9.9,9.1,12.3v0.2l-30.7,0
		v-0.2c3.2-1.7,4.9-3.5,4.9-6.2c0-2-0.7-4-1.8-6.5l-5.3-11.4h-30l-4,9.3c-1,2.1-1.7,4.4-1.7,6.7c0,3.5,2.1,6.4,5.8,8.1V276.5z
		 M387.4,249h27.1l-13.9-30.2L387.4,249z"/>
	<path fill="#FFFFFF" d="M492.3,198.1c16.6,0,29.4,5.7,29.4,20.8c0,13.7-12.8,19.8-25.8,20.1c11.8,0.8,17.7,5.7,20.7,14.6l2.9,9
		c2.7,8.1,5.5,10.9,12.1,13.8v0.2H508c-2.4-2.6-4.3-6.9-5.9-12.1l-3.7-12.3c-2.2-6.8-5.3-12.1-14.1-12.1H475v22.6
		c0,7.4,1.1,10.8,6.3,13.7v0.2l-29.4,0v-0.2c5.2-2.9,6.3-6.3,6.3-13.7l0-50.6c0-7.4-1.1-10.7-6.3-13.7V198L492.3,198.1z M475,236.9
		h11.1c10.9,0,17.6-5.6,17.6-17.7c0-11.5-6.2-18.3-17.6-18.3l-11.1,0L475,236.9z"/>
	<path fill="#FFFFFF" d="M287.4,298.3c2.3,0,4-0.1,5.1-0.6l2.8,18.3h-0.2c-6.3-10.4-9.4-15.5-18.3-15.5h-4.7l0,45.3
		c0,5.4,1,7.4,4.8,9.5v0.2H255v-0.2c3.8-2.1,4.7-4.2,4.7-9.5l0-45.3h-4.7c-8.9,0-11.9,5.1-18.2,15.5h-0.2l2.8-18.3
		c1.1,0.5,2.8,0.7,5,0.7L287.4,298.3z"/>
	<path fill="#FFFFFF" d="M326.1,356.2c-16.2,0-28.8-12.2-28.8-29.4c0-17.1,12.6-29.4,28.8-29.4c16.2,0,28.8,12.2,28.8,29.4
		C354.9,344,342.3,356.2,326.1,356.2 M326.1,299.2c-10.7,0-15.3,10.6-15.3,27.7c0,17,4.6,27.7,15.3,27.7c10.7,0,15.3-10.6,15.3-27.7
		C341.3,309.8,336.8,299.2,326.1,299.2"/>
	<path fill="#FFFFFF" d="M407.6,333.4c0,15-9.1,22.8-22.3,22.8c-14.7,0-24.2-7.7-24.2-23v-24.8c0-5.4-0.8-7.8-4.6-10v-0.2H378v0.2
		c-3.8,2.1-4.6,4.6-4.6,10v24.4c0,12,4.8,19,15.1,19c9.5,0,16.6-6.6,16.6-18.8l0-22.4c0-6.4-2.1-10.3-6.5-12.2v-0.2h15.1v0.2
		c-4.1,2.1-6.1,5.8-6.1,11.9V333.4z"/>
	<path fill="#FFFFFF" d="M463.8,316.3h-0.2c-3.7-10-10.1-17-18.6-17c-11.3,0-17.7,11.3-17.7,25.8c0,15.8,9.1,24.8,19.8,24.8
		c7.8,0,13.9-2.9,17.7-11.4l0.5,0.2c-2.5,10.7-10.9,17.4-23.4,17.4c-16,0-28-11.5-28-28.9c0-17.5,13.5-29.9,30.1-29.9
		c7.1,0,11.3,2.6,13.9,2.6c2.4,0,3.8-1.2,5.3-2.6L463.8,316.3z"/>
	<path fill="#FFFFFF" d="M472.5,308.4c0-5.4-0.8-7.8-4.6-9.9v-0.2h21.4v0.2c-3.7,2.1-4.6,4.6-4.6,10v16.5h27.3v-16.5
		c0-5.4-0.8-7.8-4.6-10v-0.2l21.4,0v0.1c-3.8,2.1-4.6,4.6-4.6,10v36.9c0,5.4,0.8,7.8,4.6,10v0.2l-21.4,0v-0.2
		c3.8-2.1,4.6-4.6,4.6-10l0-18h-27.3l0,18c0,5.4,0.8,7.8,4.6,10v0.2l-21.4,0v-0.2c3.7-2.1,4.6-4.6,4.6-9.9V308.4z"/>
	<polygon fill="#FFFFFF" points="121.8,136.3 185,245.8 121.8,355.3 145.9,355.3 209.2,245.8 146,136.3 	"/>
	<polygon fill="#FFFFFF" points="73.4,136.3 136.6,245.8 73.4,355.3 97.5,355.3 160.8,245.8 97.6,136.3 	"/>
	<path fill="#FFFFFF" d="M274.9,136.3c1.6,0,2.8-0.1,3.5-0.5l1.9,12.7h-0.1c-4.4-7.2-6.5-10.7-12.7-10.7h-3.3v31.4
		c0,3.7,0.7,5.1,3.3,6.6v0.1h-15.2v-0.1c2.6-1.5,3.3-2.9,3.3-6.6v-31.4h-3.3c-6.2,0-8.3,3.6-12.6,10.7h-0.1l1.9-12.7
		c0.7,0.3,1.9,0.5,3.4,0.5H274.9z"/>
	<path fill="#FFFFFF" d="M301.9,176.5c-11.3,0-20-8.5-20-20.4c0-11.9,8.7-20.4,20-20.4c11.3,0,20,8.5,20,20.4
		C321.9,168,313.2,176.5,301.9,176.5z M301.9,137c-7.4,0-10.6,7.4-10.6,19.2s3.2,19.2,10.6,19.2c7.4,0,10.6-7.4,10.6-19.2
		S309.3,137,301.9,137z"/>
	<path fill="#FFFFFF" d="M345,136.3c8.4,0,14.8,2.9,14.8,10.5c0,6.9-6.5,10-13,10.1c5.9,0.4,8.9,2.9,10.5,7.4l1.5,4.5
		c1.4,4.1,2.8,5.5,6.1,7v0.1h-11.9c-1.2-1.3-2.1-3.5-3-6.1l-1.9-6.2c-1.1-3.5-2.7-6.1-7.1-6.1h-4.6v11.4c0,3.7,0.6,5.4,3.2,6.9v0.1
		h-14.8v-0.1c2.6-1.5,3.2-3.2,3.2-6.9v-25.6c0-3.7-0.6-5.4-3.2-6.9v-0.1H345z M336.3,156h5.6c5.5,0,8.9-2.8,8.9-8.9
		c0-5.8-3.1-9.2-8.9-9.2h-5.6V156z"/>
	<path fill="#FFFFFF" d="M385,176.5c-11.3,0-20-8.5-20-20.4c0-11.9,8.7-20.4,20-20.4c11.3,0,20,8.5,20,20.4
		C404.9,168,396.2,176.5,385,176.5z M385,137c-7.4,0-10.6,7.4-10.6,19.2s3.2,19.2,10.6,19.2c7.4,0,10.6-7.4,10.6-19.2
		S392.4,137,385,137z"/>
	<path fill="#FFFFFF" d="M442.2,144.7v31.5h-1.6l-28.1-35.1v26.3c0,4.5,1.4,7.1,4.5,8.5v0.1h-10.5v-0.1c2.8-1.5,4.2-4,4.2-8.3v-24.2
		c0-3.7-0.6-5.4-3.2-6.9v-0.1h12.2l20.7,26.1v-17.5c0-4.5-1.4-7.1-4.5-8.5v-0.1h10.5v0.1C443.6,137.9,442.2,140.5,442.2,144.7z"/>
	<path fill="#FFFFFF" d="M482.1,136.3c1.6,0,2.8-0.1,3.5-0.5l1.9,12.7h-0.1c-4.4-7.2-6.5-10.7-12.7-10.7h-3.3v31.4
		c0,3.7,0.7,5.1,3.3,6.6v0.1h-15.2v-0.1c2.6-1.5,3.3-2.9,3.3-6.6v-31.4h-3.3c-6.2,0-8.3,3.6-12.6,10.7h-0.1l1.9-12.7
		c0.7,0.3,1.9,0.5,3.4,0.5H482.1z"/>
	<path fill="#FFFFFF" d="M509.2,176.5c-11.3,0-20-8.5-20-20.4c0-11.9,8.7-20.4,20-20.4c11.3,0,20,8.5,20,20.4
		C529.1,168,520.4,176.5,509.2,176.5z M509.2,137c-7.4,0-10.6,7.4-10.6,19.2s3.2,19.2,10.6,19.2c7.4,0,10.6-7.4,10.6-19.2
		S516.6,137,509.2,137z"/>
</g>
</svg>
